<svg t="1737442491075" class="icon" viewBox="0 0 1024 1024" version="1.1" xmlns="http://www.w3.org/2000/svg" p-id="9539" width="200" height="200"><path d="M604.624951 961.165146h-15.254832a24.448692 24.448692 0 0 1-24.421016-24.421016v-91.457038a24.448692 24.448692 0 0 1 24.421016-24.421016h15.254832a24.448692 24.448692 0 0 1 24.421017 24.421016v91.457038a24.448692 24.448692 0 0 1-24.421017 24.421016z m-167.1168 0h-15.238227a24.448692 24.448692 0 0 1-24.426551-24.421016v-91.457038a24.448692 24.448692 0 0 1 24.426551-24.421016h15.238227a24.448692 24.448692 0 0 1 24.421017 24.421016v91.457038a24.448692 24.448692 0 0 1-24.421017 24.421016z m334.216995-42.764454h-15.249297a24.437622 24.437622 0 0 1-24.421017-24.398876v-91.451502a24.448692 24.448692 0 0 1 24.421017-24.421017h15.249297a24.448692 24.448692 0 0 1 24.421016 24.421017v91.451502c0 13.450378-10.959568 24.398876-24.421016 24.398876z m-501.322724-7.38387h-15.238227a24.437622 24.437622 0 0 1-24.426552-24.398876v-91.451503a24.448692 24.448692 0 0 1 24.426552-24.421016h15.238227a24.448692 24.448692 0 0 1 24.421016 24.421016v91.451503a24.437622 24.437622 0 0 1-24.421016 24.398876z m244.76921-153.068627c-226.940541 0-299.600259-33.570595-316.465816-43.865946l-3.979762-2.42439V543.821492c0-175.740541 142.972541-318.713081 318.713081-318.713081s318.718616 142.972541 318.718616 318.713081v167.836367l-3.846919 2.44653c-16.16813 10.289816-86.536303 43.843805-313.1392 43.843806z" fill="#C57FE5" p-id="9540"></path><path d="M604.624951 969.467849h-15.254832a32.751395 32.751395 0 0 1-32.723719-32.723719v-91.457038a32.751395 32.751395 0 0 1 32.723719-32.723719h15.254832a32.762465 32.762465 0 0 1 32.723719 32.723719v91.457038a32.762465 32.762465 0 0 1-32.723719 32.723719z m-15.249297-140.299071a16.145989 16.145989 0 0 0-16.118313 16.118314v91.457038a16.157059 16.157059 0 0 0 16.118313 16.118313h15.254832a16.151524 16.151524 0 0 0 16.118314-16.118313v-91.457038a16.140454 16.140454 0 0 0-16.118314-16.118314h-15.254832z m-151.867503 140.299071h-15.238227a32.768 32.768 0 0 1-32.729254-32.723719v-91.457038a32.768 32.768 0 0 1 32.729254-32.723719h15.238227a32.762465 32.762465 0 0 1 32.723719 32.723719v91.457038a32.762465 32.762465 0 0 1-32.723719 32.723719z m-15.238227-140.299071a16.140454 16.140454 0 0 0-16.123848 16.118314v91.457038a16.145989 16.145989 0 0 0 16.123848 16.118313h15.238227a16.145989 16.145989 0 0 0 16.118314-16.118313v-91.457038a16.140454 16.140454 0 0 0-16.118314-16.118314h-15.238227z m349.455222 97.551222h-15.249297a32.75693 32.75693 0 0 1-32.723719-32.718184v-91.445967a32.75693 32.75693 0 0 1 32.723719-32.723719h15.249297a32.751395 32.751395 0 0 1 32.723719 32.723719v91.445967a32.75693 32.75693 0 0 1-32.723719 32.718184z m-15.249297-140.293535a16.140454 16.140454 0 0 0-16.118314 16.118313v91.451503a16.123849 16.123849 0 0 0 16.118314 16.096173h15.249297a16.134919 16.134919 0 0 0 16.118313-16.096173v-91.451503a16.145989 16.145989 0 0 0-16.118313-16.118313h-15.249297z m-486.073427 132.909665h-15.238227a32.762465 32.762465 0 0 1-32.729254-32.718184v-91.445968a32.762465 32.762465 0 0 1 32.729254-32.723719h15.238227a32.75693 32.75693 0 0 1 32.723719 32.723719v91.445968a32.75693 32.75693 0 0 1-32.723719 32.718184z m-15.238227-140.293535a16.140454 16.140454 0 0 0-16.123849 16.118313v91.451503a16.129384 16.129384 0 0 0 16.123849 16.096173h15.238227a16.129384 16.129384 0 0 0 16.118313-16.096173v-91.451503a16.140454 16.140454 0 0 0-16.118313-16.118313h-15.238227z m260.007437-12.791698c-268.570292 0-323.772195-46.755286-325.991783-48.75347a8.291632 8.291632 0 0 1-2.756498-6.177211V543.821492c0-180.318097 146.697686-327.015784 327.015784-327.015784s327.021319 146.697686 327.021319 327.015784v167.498724c0 2.258335-0.918832 4.422573-2.551697 5.983481-2.075676 1.998184-54.006314 48.9472-322.737125 48.9472zM203.028757 706.997276c13.804627 8.418941 84.006746 42.648216 312.142875 42.648216 227.632432 0 295.388022-34.085362 308.683417-42.543049V543.821492c0-171.162984-139.247395-310.410378-310.415914-310.410378-171.157449 0-310.410378 139.247395-310.410378 310.410378v163.175784z m460.418075-25.029881c-3.631049 0-6.863568-1.040605-9.592389-3.321081-23.944995-19.948627 17.734573-85.744778 31.079784-105.43879a8.291632 8.291632 0 1 1 13.73267 9.321168c-27.271611 40.223827-40.472908 76.506638-34.517102 83.054703a3.575697 3.575697 0 0 0 0.243546 0.005535c9.005665 0 40.201686-27.321427 67.877362-59.602335a8.302703 8.302703 0 0 1 12.603502 10.810119c-26.729168 31.190486-60.6208 65.165146-81.427373 65.170681z m-295.709059-11.601644c-28.826984 0-73.639438-40.854832-85.218941-53.319956a8.297168 8.297168 0 1 1 12.166227-11.297211c26.40813 28.445059 67.058162 53.618854 76.213276 47.397362 1.887481-9.326703-23.175611-49.838357-54.305211-87.671005a8.302703 8.302703 0 1 1 12.819373-10.549968c34.113038 41.458162 70.988108 94.246746 52.932498 110.326313-4.024043 3.581232-9.016735 5.114465-14.607222 5.114465z" fill="#7F4699" p-id="9541"></path><path d="M294.823438 865.147157v21.470789a24.409946 24.409946 0 0 1-24.421016 24.415481h-15.238227a24.432086 24.432086 0 0 1-24.426552-24.415481v-20.064865c9.276886 2.950227 19.428324 4.605232 30.100065 4.605233 12.188368 0 23.690378-2.197449 33.98573-6.011157z m133.12 56.13734c-10.671741 0-20.823178-1.655005-30.100065-4.605232v20.064865a24.421016 24.421016 0 0 0 24.426551 24.421016h15.238227a24.432086 24.432086 0 0 0 24.421017-24.421016v-21.459719a97.8944 97.8944 0 0 1-33.98573 6.000086z m167.10573 0c-10.671741 0-20.823178-1.655005-30.100065-4.605232v20.064865a24.426551 24.426551 0 0 0 24.421016 24.421016h15.243762a24.432086 24.432086 0 0 0 24.421016-24.421016v-21.459719a97.872259 97.872259 0 0 1-33.985729 6.000086z m167.100194-42.731243c-10.671741 0-20.823178-1.655005-30.100065-4.605232v20.064864a24.421016 24.421016 0 0 0 24.421017 24.415482h15.249297a24.421016 24.421016 0 0 0 24.421016-24.415482v-21.459718a98.137946 98.137946 0 0 1-33.991265 6.000086z" fill="#2AC699" p-id="9542"></path><path d="M505.180714 412.439524c0 33.863957-27.448735 61.318227-61.318228 61.318227s-61.318227-27.45427-61.318227-61.318227c0-33.863957 27.448735-61.323762 61.318227-61.323762s61.318227 27.459805 61.318228 61.323762z m78.084151-61.323762c-33.863957 0-61.323762 27.459805-61.323762 61.323762s27.459805 61.318227 61.323762 61.318227c33.858422 0 61.312692-27.45427 61.312692-61.318227 0-33.863957-27.45427-61.323762-61.312692-61.323762z m91.634162 95.154508a4.068324 4.068324 0 0 1-3.514811-6.127394 43.467416 43.467416 0 0 0 5.9392-21.974487 43.096562 43.096562 0 0 0-9.376519-27.02253 4.068324 4.068324 0 1 1 6.376476-5.053578 51.166789 51.166789 0 0 1 11.142227 32.076108c0 9.199395-2.435459 18.221665-7.051762 26.092627a4.068324 4.068324 0 0 1-3.514811 2.009254z m-322.919784 0a4.073859 4.073859 0 0 1-3.514811-2.009254 51.626205 51.626205 0 0 1-7.051762-26.092627c0-11.762162 3.857989-22.854573 11.153298-32.076108a4.068324 4.068324 0 1 1 6.387546 5.048043 43.162984 43.162984 0 0 0-9.393125 27.028065c0 7.760259 2.053535 15.354465 5.933665 21.974487a4.062789 4.062789 0 0 1-3.514811 6.127394z" fill="#2F2831" p-id="9543"></path><path d="M455.331286 378.022054c7.898638 10.527827 4.018508 26.767914-8.651416 36.266205-12.669924 9.498292-29.336216 8.673557-37.229319-1.848735-7.893103-10.522292-4.024043-26.762378 8.640346-36.266205 12.675459-9.498292 29.347286-8.673557 37.240389 1.848735z m102.16199-1.848735c-12.658854 9.503827-16.527914 25.738378-8.645881 36.266205 7.898638 10.522292 24.56493 11.347027 37.234854 1.848735 12.669924-9.498292 16.544519-25.732843 8.651416-36.266205-7.893103-10.522292-24.570465-11.347027-37.240389-1.848735z m-81.383092 39.399092c4.31187 5.319265 1.284151 14.944865-6.786076 21.49293-8.059157 6.5536-18.099892 7.538854-22.422832 2.219589-4.31187-5.31373-1.278616-14.933795 6.786075-21.48186 8.059157-6.548065 18.088822-7.549924 22.422833-2.230659z m116.968475 2.230659c-8.064692 6.548065-11.103481 16.16813-6.802681 21.48186 4.322941 5.319265 14.385816 4.328476 22.450508-2.219589 8.075762-6.548065 11.092411-16.173665 6.780541-21.49293s-14.352605-4.317405-22.428368 2.230659z" fill="#FFFFFF" p-id="9544"></path><path d="M489.422184 563.316238a24.044627 24.044627 0 0 0 24.028021 24.011416 24.039092 24.039092 0 0 0 24.016952-24.011416V523.402378H489.416649l0.005535 39.91386z" fill="#FFA4DC" p-id="9545"></path><path d="M467.126659 512.337643s-5.10893 0.088562-5.108929 5.535135 5.10893 5.535135 5.108929 5.535136h11.225255v39.913859a35.131503 35.131503 0 0 0 35.098291 35.081686 35.125968 35.125968 0 0 0 35.087222-35.081686v-39.913859h11.219719s5.623697 0 5.623697-5.535136-5.623697-5.535135-5.623697-5.535135H467.126659z m70.346033 50.978595a24.039092 24.039092 0 0 1-24.011416 24.011416 24.044627 24.044627 0 0 1-24.028022-24.011416V523.402378h48.056043v39.91386h-0.016605z" fill="#6E2C91" p-id="9546"></path><path d="M624.999784 311.777557c-27.2384 0-57.476843-9.930032-78.919957-25.909968-12.000173-8.939243-23.502184-13.284324-35.170249-13.284324-16.273297 0-30.869449 8.280562-46.329081 17.053751l-3.476065 1.964973c-9.448476 5.3248-24.077838 8.507503-39.13894 8.507503-18.404324 0-78.914422-5.717795-84.848087-79.290811-3.88013-48.211027 18.332368-86.873946 37.655525-110.81894l6.686443-8.286098-1.804454 10.489081c-7.057297 41.054097-6.625557 78.825859 1.134703 98.580757 8.031481 20.485535 30.166486 34.793859 53.829189 34.79386h0.005535c7.909708 0 15.620151-1.560908 22.909924-4.627373 19.389578-8.391265 34.240346-13.599827 48.260844-13.599827 15.570335 0 28.871265 6.476108 43.124237 21.005837 3.658724 3.736216 7.162465 7.527784 10.632995 11.286141 19.754897 21.398832 38.419373 41.618681 79.534357 41.618681 5.457643 0 11.297211-0.354249 17.363719-1.062746l8.496432 1.084887-2.88934 3.730681c-11.214184 4.488995-23.684843 6.763935-37.05773 6.763935z" fill="#F7466C" p-id="9547"></path><path d="M694.46573 276.861924a240.573578 240.573578 0 0 1-36.559568 7.406011c-67.921643 8.496432-75.299978-80.962422-127.928043-93.986594-39.631568-9.6256-76.999265 27.177514-103.042076 8.496432-18.42093-13.212368-21.10547-35.458076-15.913513-62.751827-9.049946-25.79373-1.129168-56.762811-1.129168-56.762811s-16.123849 11.645924-32.928519 32.485708c-6.835892 39.797622-6.946595 79.080476 1.284152 100.058638 11.319351 28.8768 48.11693 45.299546 80.392302 31.705254 37.937816-16.417211 60.587589-21.51507 88.329687 6.797146 27.764238 28.312216 46.445319 60.01747 109.855827 52.655741l4.267589-0.503698c9.675416-3.874595 18.747503-9.498292 26.651676-17.413535 2.330292-2.396714 4.588627-5.147676 6.719654-8.186465z" fill="#FFF24D" p-id="9548"></path><path d="M649.055481 287.600086c-34.096432 0-52.240605-25.361989-69.786984-49.888172-14.474378-20.230919-28.146162-39.343741-49.98227-44.746033a56.043243 56.043243 0 0 0-13.406097-1.555373c-13.478054 0-26.557578 4.239914-39.205362 8.341449-11.363632 3.6864-22.096259 7.162465-32.109319 7.162465h-0.005535c-7.439222 0-13.738205-1.931762-19.262271-5.889384-17.690292-12.6976-23.103654-33.515243-17.031611-65.519395l1.920692-10.129297 3.409644 9.725232c6.996411 19.965232 22.577816 30.786422 46.30694 32.1536 32.131459 1.893016 47.9232-13.660714 63.150357-28.699675l0.869016-0.852411 1.21773 0.060886c24.531719 1.23987 46.257124 16.046357 70.445665 48.017298 20.6848 27.349103 43.284757 41.220151 67.157794 41.220151h0.005535c19.887741 0 34.937773-9.802724 40.478444-14.014962 2.573838-1.953903 5.429968-4.073859 8.358054-6.227027l4.400432-3.243589 0.01107 5.468713c0.044281 26.164584-7.15693 52.129903-19.26227 69.460411l-0.564584 0.80813-0.946508 0.271221a246.723114 246.723114 0 0 1-36.969167 7.489038c-3.138422 0.392995-6.227027 0.586724-9.199395 0.586724z" fill="#68D649" p-id="9549"></path><path d="M593.355416 187.452886c49.257168 65.109795 97.396238 38.496865 111.538508 27.742098 2.562768-1.948368 5.396757-4.057254 8.324844-6.204887-0.116238-48.083719-25.328778-99.311395-96.898076-104.791178-51.083762-4.306335-71.608043 16.843416-91.32973 36.327092 19.638659 0.996324 41.253362 11.086876 68.364454 46.926875z" fill="#42B0F4" p-id="9550"></path><path d="M625.143697 317.390184c-28.389708 0-59.956584-10.378378-82.379416-27.088952-11.003849-8.20307-21.426508-12.188368-31.854703-12.188367-14.812022 0-28.793773 7.931849-43.594724 16.328649l-3.487135 1.976043c-10.24 5.773146-25.887827 9.221535-41.856692 9.221535-40.389881 0-85.346249-22.162681-90.372151-84.3776-7.223351-89.547416 70.113557-146.365578 73.406962-148.740151l18.503957-13.334141-5.607092 22.1184c-0.105168 0.404065-10.018595 40.594681 7.018551 63.831178 7.500108 10.22893 19.0464 15.658897 35.303092 16.594336 1.710357 0.099632 3.365362 0.143914 4.976086 0.143913h0.005536c26.347243 0 39.581751-13.068454 54.90854-28.201513 18.205059-17.972584 38.840043-38.341881 83.314854-38.341882 4.345081 0 8.917103 0.199265 13.588757 0.59226 47.5136 3.631049 81.892324 27.725492 96.748627 67.838616 17.280692 46.68333 3.509276 103.429535-20.197708 127.136519-17.330508 17.336043-40.998746 26.491157-68.425341 26.491157zM510.909578 261.512995c14.136735 0 27.808519 5.064649 41.7792 15.481773 19.699546 14.673643 47.447178 23.795546 72.454919 23.795546 15.996541 0 38.806832-3.752822 56.668714-21.625773 19.666335-19.666335 31.223697-69.526832 16.361859-109.634422-8.823005-23.823222-30.293795-53.05427-82.490119-57.050638a146.736432 146.736432 0 0 0-12.260324-0.542443c-37.67213 0-54.161297 16.295438-71.635719 33.553989-17.385859 17.158919-35.352908 34.993124-72.52134 32.817816-21.243849-1.2288-37.317881-9.105297-47.779287-23.408086-12.116411-16.57773-13.854443-38.341881-12.952216-54.626249-21.116541 21.000303-54.891935 63.825643-50.386335 119.653016 5.036973 62.375438 53.303351 69.106162 73.816562 69.106162 15.586941 0 27.625859-3.658724 33.697903-7.079437l3.453924-1.953903c16.029751-9.088692 32.596411-18.487351 51.792259-18.487351z" fill="#661B4D" p-id="9551"></path><path d="M825.76467 708.386595c-17.884022 0-157.590832 23.623957-301.089211 23.623956-151.064908 0-306.242422-23.623957-323.561859-23.623956-37.05773 0-67.102443 30.044714-67.102443 67.102443 0 37.041124 30.044714 67.102443 67.102443 67.102443 25.483762 0 47.635373-14.192086 59.004541-35.131503 3.442854 43.467416 39.709059 77.63027 84.034421 77.630271 42.5984 0 77.729903-31.605622 83.469838-72.615438 5.036973 41.795805 40.555935 74.176346 83.713384 74.176346 43.140843 0 78.65427-32.402681 83.696778-74.170811 5.739935 41.020886 40.865903 72.609903 83.458768 72.609903 46.605838 0 84.383135-37.771762 84.383135-84.3776 0-0.80813-0.099632-1.544303-0.116238-2.324757 9.382054 25.721773 34.018941 44.164843 63.006443 44.164843 37.063265 0 67.113514-30.044714 67.113514-67.096908 0-37.030054-30.050249-67.069232-67.113514-67.069232z" fill="#FF94F0" p-id="9552"></path></svg>